HIERARCHY
ROOT root
{
	OFFSET 0.000000 0.000000 0.000000
	CHANNELS 6 Xposition Yposition Zposition Zrotation Yrotation Xrotation
	JOINT lhip
	{
		OFFSET 0.058581 -0.082280 -0.017664
		CHANNELS 3 Zrotation Yrotation Xrotation
		JOINT lknee
		{
			OFFSET 0.043451 -0.386469 0.008037
			CHANNELS 3 Zrotation Yrotation Xrotation
			JOINT lankle
			{
				OFFSET -0.014790 -0.426874 -0.037428
				CHANNELS 3 Zrotation Yrotation Xrotation
				JOINT ltoe
				{
					OFFSET 0.041054 -0.060286 0.122042
					CHANNELS 3 Zrotation Yrotation Xrotation
					End Site
					{
						OFFSET 0.000000 0.000000 0.000000
					}
				}
			}
		}
	}
	JOINT rhip
	{
		OFFSET -0.060310 -0.090513 -0.013543
		CHANNELS 3 Zrotation Yrotation Xrotation
		JOINT rknee
		{
			OFFSET -0.043257 -0.383688 -0.004843
			CHANNELS 3 Zrotation Yrotation Xrotation
			JOINT rankle
			{
				OFFSET 0.019056 -0.420046 -0.034562
				CHANNELS 3 Zrotation Yrotation Xrotation
				JOINT rtoe
				{
					OFFSET -0.034840 -0.062106 0.130323
					CHANNELS 3 Zrotation Yrotation Xrotation
					End Site
					{
						OFFSET 0.000000 0.000000 0.000000
					}
				}
			}
		}
	}
	JOINT lowerback
	{
		OFFSET 0.004439 0.124404 -0.038385
		CHANNELS 3 Zrotation Yrotation Xrotation
		JOINT upperback
		{
			OFFSET 0.004488 0.137956 0.026820
			CHANNELS 3 Zrotation Yrotation Xrotation
			JOINT chest
			{
				OFFSET -0.002265 0.056032 0.002855
				CHANNELS 3 Zrotation Yrotation Xrotation
				JOINT lowerneck
				{
					OFFSET -0.013390 0.211636 -0.033468
					CHANNELS 3 Zrotation Yrotation Xrotation
					JOINT upperneck
					{
						OFFSET 0.010113 0.088937 0.050410
						CHANNELS 3 Zrotation Yrotation Xrotation
						End Site
						{
							OFFSET 0.000000 0.000000 0.000000
						}
					}
				}
				JOINT lclavicle
				{
					OFFSET 0.071702 0.114000 -0.018898
					CHANNELS 3 Zrotation Yrotation Xrotation
					JOINT lshoulder
					{
						OFFSET 0.122921 0.045205 -0.019046
						CHANNELS 3 Zrotation Yrotation Xrotation
						JOINT lelbow
						{
							OFFSET 0.255332 -0.015649 -0.022946
							CHANNELS 3 Zrotation Yrotation Xrotation
							JOINT lwrist
							{
								OFFSET 0.265709 0.012698 -0.007375
								CHANNELS 3 Zrotation Yrotation Xrotation
								End Site
								{
									OFFSET 0.000000 0.000000 0.000000
								}
							}
						}
					}
				}
				JOINT rclavicle
				{
					OFFSET -0.082954 0.112472 -0.023707
					CHANNELS 3 Zrotation Yrotation Xrotation
					JOINT rshoulder
					{
						OFFSET -0.113228 0.046853 -0.008472
						CHANNELS 3 Zrotation Yrotation Xrotation
						JOINT relbow
						{
							OFFSET -0.260127 -0.014369 -0.031269
							CHANNELS 3 Zrotation Yrotation Xrotation
							JOINT rwrist
							{
								OFFSET -0.269108 0.006794 -0.006027
								CHANNELS 3 Zrotation Yrotation Xrotation
								End Site
								{
									OFFSET 0.000000 0.000000 0.000000
								}
							}
						}
					}
				}
			}
		}
	}
}
MOTION
Frames: 11
Frame Time: 0.033333
0.388703 0.879383 0.868272 0.139714 -2.015335 77.947029 2.104370 2.664037 -12.708078 -12.521580 -0.836285 59.393585 2.717091 13.301284 -34.013847 0.000000 -0.000000 0.000000 3.207229 2.808002 -13.883415 4.141429 4.528836 61.545522 -1.456770 -15.679427 -37.202502 0.000000 -0.000000 0.000000 -2.293388 -0.212278 22.067053 3.256506 -3.274512 0.063555 -0.717102 -2.609806 4.248643 1.808768 13.659789 -14.971028 -7.920747 5.196069 3.968355 -24.779284 -1.650170 -3.659679 -26.286091 -4.865291 -6.795655 16.068766 -25.642438 -19.516761 12.699150 -6.719785 -10.488235 28.954590 1.357580 -6.193380 35.453463 6.369540 3.339836 -36.421976 32.236579 -34.511799 -12.951794 8.497750 -8.434987 
0.390309 0.877739 0.886384 0.542077 -2.218403 78.601271 1.719108 3.267891 -11.023243 -12.567794 -2.357400 54.564959 2.477927 13.541731 -31.647951 0.000000 -0.000000 0.000000 2.877697 1.861678 -12.359252 4.491768 5.925457 57.056103 -1.265053 -16.302352 -35.078481 0.000000 -0.000000 0.000000 -2.495755 0.077382 20.745241 3.386503 -3.678920 -0.377337 -0.459512 -2.535627 4.224851 1.425989 13.486524 -13.837797 -7.635556 5.202460 3.800185 -22.434625 -1.529593 -4.279111 -19.724933 -3.685779 -9.151890 16.521045 -26.070057 -24.492067 16.142665 -7.031619 -11.558999 27.221844 0.703582 -7.213776 29.836701 5.840170 0.393356 -41.189760 31.484068 -42.995375 -19.555564 8.736655 -9.846755 
0.392519 0.877546 0.922530 1.076495 -2.047527 79.740843 2.160392 3.638763 -9.248629 -13.047947 -4.710277 47.940510 0.726164 12.082722 -24.724921 0.000000 -0.000000 0.000000 2.074622 0.829143 -10.193661 4.979235 7.979565 49.975529 0.219862 -13.667695 -28.215479 0.000000 -0.000000 0.000000 -2.173386 0.175921 19.493120 3.414545 -4.099969 -0.913753 -0.031893 -2.274356 3.911744 0.657769 12.996349 -13.093542 -7.346700 5.214865 3.489507 -20.035565 -1.360932 -4.956879 -15.007950 -2.905999 -11.109712 18.284706 -26.658195 -30.175693 18.590788 -7.225045 -12.031800 24.790581 -0.368569 -8.510012 25.724328 4.290551 -1.685292 -45.479439 31.155188 -49.319659 -22.281549 8.486699 -11.030784 
0.395585 0.878642 0.983774 1.426160 -1.830307 81.815392 3.507134 4.076160 -7.237869 -12.762615 -7.515564 37.977080 -4.877843 7.888729 -10.308678 0.000000 -0.000000 0.000000 -0.062697 -0.543413 -7.546984 5.366635 10.274309 38.771850 4.496541 -8.170183 -13.206447 0.000000 -0.000000 0.000000 -1.663074 0.378101 16.818541 3.500594 -4.666351 -0.328197 0.433326 -2.108055 2.672860 -0.723325 12.351714 -11.426437 -6.313462 5.959069 2.917434 -17.717554 -0.778092 -6.026973 -10.380624 -2.118785 -12.568360 20.963687 -27.450325 -35.204098 20.368754 -8.476663 -10.874759 22.617824 -1.764061 -9.144336 20.285614 4.063975 -5.435679 -49.197317 30.118491 -54.753260 -24.253789 8.845969 -9.543716 
0.397326 0.879357 1.022455 1.337640 -1.731737 83.238992 4.773673 4.413075 -6.136357 -12.250607 -8.866595 31.160603 -10.500700 5.570847 0.332701 0.000000 -0.000000 0.000000 -2.175469 -1.455327 -6.558838 5.572226 10.849027 31.630257 9.732522 -4.489270 -0.485613 0.000000 -0.000000 0.000000 -1.581342 0.672738 14.965191 3.616065 -4.999773 0.115361 0.819055 -1.925074 1.770921 -1.632916 12.122537 -10.076382 -5.515230 6.176625 2.442298 -15.879745 -0.233868 -6.546291 -8.551098 -2.123208 -13.189206 22.736104 -27.402094 -37.787952 20.762255 -9.791651 -9.495320 21.304080 -2.736097 -9.436369 16.934346 4.357587 -7.282000 -50.595716 29.719193 -56.672303 -25.530101 9.723061 -8.596612 
0.399794 0.879345 1.067079 0.943796 -1.490777 85.091719 6.430966 5.706577 -4.677942 -9.877046 -11.590418 22.073215 -20.846473 2.904157 11.050029 0.000000 -0.000000 0.000000 -4.514950 -3.112865 -5.752716 3.305411 10.581397 22.025497 21.197428 0.573982 15.919623 0.000000 -0.000000 0.000000 -1.354001 1.465277 11.516428 3.579125 -6.019274 2.545799 1.381581 -1.209710 -0.127552 -2.191253 13.557210 -7.516171 -5.070849 4.824230 1.224919 -12.853238 -1.203117 -8.036566 -5.656838 0.236962 -13.248023 24.607837 -28.345100 -42.057478 16.056678 -11.875813 -4.219943 18.919675 -1.801285 -10.811032 10.906496 2.606357 -10.788711 -49.896880 30.576736 -61.026662 -34.216608 11.434656 -3.581652 
0.402486 0.879617 1.098237 0.627156 -1.035685 87.107673 7.844501 5.122289 -4.444072 -7.589384 -13.415469 16.559240 -19.317972 4.272128 9.007097 0.000000 -0.000000 0.000000 -5.884073 -2.454779 -5.578513 2.940509 14.774523 16.177708 20.729920 0.192146 14.937591 0.000000 -0.000000 0.000000 -1.139352 1.108623 7.927546 3.678012 -6.347661 2.933007 1.330301 -1.201810 -0.425833 -1.742868 13.579762 -4.381154 -4.770811 5.971681 0.677490 -8.787349 -0.731759 -8.096901 -2.645345 1.230273 -14.687199 25.806633 -28.731606 -41.830517 14.954312 -12.554375 -2.350564 15.218240 -1.672093 -10.991428 6.320985 4.157770 -13.822004 -49.159091 29.979603 -60.753969 -32.784923 11.453416 -1.102986 
0.405659 0.878276 1.116122 0.411471 -0.868551 87.478015 9.293739 4.733782 -3.149796 -4.700810 -12.774625 13.601559 -16.747527 8.315660 6.417262 0.000000 -0.000000 0.000000 -7.512344 -2.580255 -4.929024 0.830807 14.429303 14.394200 18.723600 -4.322882 10.062961 0.000000 -0.000000 0.000000 -1.174698 0.478314 5.918659 3.450820 -6.218815 2.835199 1.537481 -0.836165 0.288348 -1.575201 12.530860 -2.444480 -4.399018 6.619744 1.497096 -4.805078 -0.677134 -8.036910 0.993374 1.048104 -15.827852 26.447755 -29.370006 -41.359459 16.210016 -11.759461 -3.883958 10.616534 -0.643285 -11.272975 1.441532 4.825264 -15.734143 -46.989520 28.256199 -59.226550 -30.812273 11.313038 -1.167368 
0.408291 0.878290 1.122725 0.169624 -0.691169 86.937587 11.351072 4.590962 -1.061806 -3.396550 -13.035535 12.426100 -13.864467 11.510274 5.679709 0.000000 -0.000000 0.000000 -9.714083 -2.520327 -3.583047 0.585281 14.586479 14.306762 14.282228 -7.482099 7.627002 0.000000 -0.000000 0.000000 -0.676248 0.166972 5.767951 2.903833 -5.531386 1.556043 1.214125 -1.239423 1.216435 -0.960187 11.574756 -1.088220 -3.873697 7.256628 2.817567 -0.542053 -0.998146 -8.404839 4.821271 0.346302 -17.290278 27.066904 -29.326377 -39.675331 16.208159 -11.592056 -6.299331 5.739770 0.014774 -12.581184 -2.121358 5.863024 -16.754101 -45.363421 27.277894 -57.020815 -30.039811 11.891366 -2.091628 
0.411653 0.879453 1.115407 0.243121 -0.656887 86.452454 13.885343 3.447290 0.491260 -3.615835 -14.981931 14.132292 -12.621979 13.236200 7.100457 0.000000 -0.000000 0.000000 -12.473448 -2.649938 -2.836659 0.043434 14.511762 16.278008 11.740045 -12.048329 11.039441 0.000000 -0.000000 0.000000 -0.509691 -0.339420 4.651126 2.351131 -5.320878 1.532590 0.961179 -1.382338 1.945831 -0.972768 10.382149 0.235982 -2.797777 8.532051 3.960506 4.888646 -1.474596 -9.993364 8.510283 -1.087132 -19.576207 28.696007 -30.193421 -39.529564 16.406613 -11.530962 -5.584439 -1.259501 0.607803 -15.153786 -4.850672 7.593586 -17.680696 -43.634330 27.429671 -54.132874 -25.960523 11.705897 -0.115663 
0.413799 0.880464 1.098041 0.528723 -0.698074 86.234548 15.585250 1.825392 1.122526 -4.967655 -18.367672 17.060101 -13.068904 12.716767 8.464340 0.000000 -0.000000 0.000000 -14.596823 -2.554862 -2.465876 0.040053 15.770533 18.289821 11.796171 -12.806069 13.034961 0.000000 -0.000000 0.000000 -0.613686 -0.464672 3.534044 2.088716 -5.563021 1.824892 0.536944 -1.436182 1.901696 -0.957986 10.035103 1.687879 -1.804627 8.478374 3.926434 9.343258 -2.254063 -11.059576 11.003253 -2.707364 -20.831262 30.988307 -31.120735 -40.521396 17.530892 -11.370863 -5.996014 -5.786575 1.370322 -16.247110 -7.508100 9.009628 -18.675475 -43.088320 28.146705 -52.103698 -23.603648 11.092544 -0.485657 
